# xmcd
# Copyright (C) 1995-1998 Ti Kan
#
# Track frame offsets:
#       150
#       18131
#       37521
#       55219
#       76741
#       97067
#       118257
#       133744
#       154068
#       170923
#       189403
#       208699
#
# Disc length: 2927 seconds
#
# Revision: 0
# Processed by: cddbd v1.5.2PL0 Copyright (c) Steve Scherf et al.
# Submitted via: CD-Transfer v1.0
#
DISCID=990b6d0c
DTITLE=Jargon - 
DYEAR=2007
DGENRE=
TTITLE0=Aendy
TTITLE1=Glücksspil
TTITLE2=Hee...
TTITLE3=I Wett Hei
TTITLE4=Chumm Doch Mit
TTITLE5=Guet Für Mi
TTITLE6=Eifach Mys
TTITLE7=Kapiert
TTITLE8=Mit Dir U Mir
TTITLE9=Prophet
TTITLE10=Freiheit
TTITLE11=Vermisse Di
EXTD=
EXTT0=
EXTT1=
EXTT2=
EXTT3=
EXTT4=
EXTT5=
EXTT6=
EXTT7=
EXTT8=
EXTT9=
EXTT10=
EXTT11=
PLAYORDER=
